<svg xmlns="http://www.w3.org/2000/svg" viewBox="0 0 240 240"><defs><clipPath id="a"><path d="M0 0h240v240H0z"/></clipPath><clipPath id="b"><path d="M0 0h240v240H0z"/></clipPath></defs><g clip-path="url(#a)"><g clip-path="url(#b)" style="display:block"><path d="M-2.18-74.8a2.5 2.5 0 0 1 4.36 0L85.07 72.35a2.5 2.5 0 0 1-2.18 3.72H-82.9a2.5 2.5 0 0 1-2.18-3.72zm17.43-7.35c-6.7-11.88-23.8-11.88-30.5 0L-98.13 64.97a17.5 17.5 0 0 0 15.24 26.1H82.9a17.5 17.5 0 0 0 15.25-26.1z" class="primary" style="display:block" transform="translate(119.998 113.935)"/><path d="M120 170a10 10 0 1 0 0-20 10 10 0 0 0 0 20m-7.5-82.5v40a7.5 7.5 0 0 0 15 0v-40a7.5 7.5 0 0 0-15 0" class="primary" style="display:block"/></g></g></svg>