<svg xmlns="http://www.w3.org/2000/svg" viewBox="0 0 240 240"><defs><clipPath id="a"><path d="M0 0h240v240H0z"/></clipPath><clipPath id="b"><path d="M0 0h240v240H0z"/></clipPath></defs><g clip-path="url(#a)"><g clip-path="url(#b)" style="display:block"><g style="display:block"><path d="M188.98 47.61c-39.9-38.06-103.29-36.6-141.36 3.4l-.02.03a104 104 0 0 0-15.23 20.79 7.5 7.5 0 0 0 13.1 7.3 89 89 0 0 1 12.08-16.76l.96-1.04c32.35-33.97 86.23-35.2 120.12-2.86v.01c33.74 32.1 35.22 85.4 3.64 119.35l-.75.8c-32.36 34-86.25 35.24-120.15 2.89l-.62-.6a84.7 84.7 0 0 1-24.22-44.94 7.5 7.5 0 0 0-14.73 2.8A99.8 99.8 0 0 0 51 192.37c39.9 38.07 103.3 36.62 141.37-3.4C230.14 149.4 229 86.67 189.9 48.51z" class="primary"/><path d="M27.49 30a7.5 7.5 0 0 0-7.5 7.5v45a7.5 7.5 0 0 0 7.5 7.5H72.5a7.5 7.5 0 0 0 0-15H34.99V37.5a7.5 7.5 0 0 0-7.5-7.5" class="primary"/></g><path d="M-10.9-21.8a7.5 7.5 0 0 0-10.7 10.5l32.5 33.1a7.5 7.5 0 0 0 10.7-10.5z" class="primary" style="display:block" transform="translate(136.25 135.95)"/><path d="M-7.5-25.95v51.9a7.5 7.5 0 0 0 15 0v-51.9a7.5 7.5 0 0 0-15 0" class="primary" style="display:block" transform="translate(120 93.45)"/></g></g></svg>